<svg id="Layer_2" data-name="Layer 2" xmlns="http://www.w3.org/2000/svg" xmlns:xlink="http://www.w3.org/1999/xlink" viewBox="0 0 490.61 589.87"><defs><style>.cls-1{fill:none;}.cls-2,.cls-22{fill:#fff;}.cls-3{fill:#0c1834;}.cls-4{opacity:0.9;}.cls-5{fill:url(#linear-gradient);}.cls-6{fill:#c49a6c;}.cls-7{fill:#414042;}.cls-8{fill:#594a42;}.cls-9{clip-path:url(#clip-path);}.cls-10{fill:#231f20;}.cls-11{fill:#939598;}.cls-12{fill:url(#linear-gradient-2);}.cls-13{clip-path:url(#clip-path-2);}.cls-14{fill:#ee70a4;}.cls-15{fill:#ed8e5f;}.cls-16{fill:url(#linear-gradient-3);}.cls-17{clip-path:url(#clip-path-3);}.cls-18{fill:#f26522;}.cls-19{fill:#0f113a;}.cls-20{fill:url(#linear-gradient-4);}.cls-21{fill:#00a79d;}.cls-22{stroke:#939598;stroke-miterlimit:10;}.cls-23{clip-path:url(#clip-path-4);}.cls-24{fill:url(#linear-gradient-5);}.cls-25{clip-path:url(#clip-path-5);}.cls-26{fill:#ed1c24;}.cls-27{fill:#fff200;}.cls-28{fill:url(#linear-gradient-6);}.cls-29{clip-path:url(#clip-path-6);}.cls-30{fill:url(#New_Pattern);}.cls-31{fill:url(#New_Pattern-3);}</style><linearGradient id="linear-gradient" x1="440.32" y1="21.4" x2="440.32" y2="479.45" gradientUnits="userSpaceOnUse"><stop offset="0" stop-color="#fff" stop-opacity="0.1"/><stop offset="1" stop-color="#fff" stop-opacity="0.7"/></linearGradient><clipPath id="clip-path"><path class="cls-1" d="M462,463.47c-2.07-5.33-4.42-13.27-5.85-25.1a15.85,15.85,0,0,0-2.15-8c-4-6.68-11.76-7.51-13.54-7.62h-0.31c-1.78.1-9.56,0.93-13.54,7.62a15.85,15.85,0,0,0-2.15,8c-1.43,11.83-3.78,19.77-5.85,25.1-0.71,1.82-2,5-1,8.43,1.62,5.21,7.66,7.36,9,7.83,5,1.78,11.66,2.79,13.7,2.21,2,0.58,8.7-.42,13.7-2.21,1.31-.47,7.36-2.62,9-7.83C464.05,468.48,462.73,465.29,462,463.47Z"/></clipPath><linearGradient id="linear-gradient-2" x1="363.01" y1="21.4" x2="363.01" y2="479.45" gradientUnits="userSpaceOnUse"><stop offset="0" stop-color="#fff" stop-opacity="0.1"/><stop offset="1" stop-color="#ee70a4" stop-opacity="0.7"/></linearGradient><clipPath id="clip-path-2"><path class="cls-1" d="M384.7,464.44c-2.07-5.33-4.42-13.27-5.85-25.1a15.85,15.85,0,0,0-2.15-8c-4-6.68-11.76-7.51-13.54-7.62h-0.31c-1.78.1-9.56,0.93-13.54,7.62a15.85,15.85,0,0,0-2.15,8c-1.43,11.83-3.78,19.77-5.85,25.1-0.71,1.82-2,5-1,8.43,1.62,5.21,7.66,7.36,9,7.83,5,1.78,11.66,2.79,13.7,2.21,2,0.58,8.7-.42,13.7-2.21,1.31-.47,7.36-2.62,9-7.83C386.74,469.45,385.41,466.26,384.7,464.44Z"/></clipPath><linearGradient id="linear-gradient-3" x1="208.38" y1="21.4" x2="208.38" y2="480.07" gradientUnits="userSpaceOnUse"><stop offset="0" stop-color="#f26522" stop-opacity="0.1"/><stop offset="1" stop-color="#f26522" stop-opacity="0.7"/></linearGradient><clipPath id="clip-path-3"><path class="cls-1" d="M230.08,464.44c-2.07-5.33-4.42-13.27-5.85-25.1a15.85,15.85,0,0,0-2.15-8c-4-6.68-11.76-7.51-13.54-7.62h-0.31c-1.78.1-9.56,0.93-13.54,7.62a15.85,15.85,0,0,0-2.15,8c-1.43,11.83-3.78,19.77-5.85,25.1-0.71,1.82-2,5-1,8.43,1.62,5.21,7.66,7.36,9,7.83,5,1.78,11.66,2.79,13.7,2.21,2,0.58,8.7-.42,13.7-2.21,1.31-.47,7.36-2.62,9-7.83C232.11,469.45,230.78,466.26,230.08,464.44Z"/></clipPath><linearGradient id="linear-gradient-4" x1="285.69" y1="21.4" x2="285.69" y2="480.36" gradientUnits="userSpaceOnUse"><stop offset="0" stop-color="#00a79d" stop-opacity="0.1"/><stop offset="1" stop-color="#00a79d" stop-opacity="0.7"/></linearGradient><clipPath id="clip-path-4"><path class="cls-1" d="M307.39,464.44c-2.07-5.33-4.42-13.27-5.85-25.1a15.85,15.85,0,0,0-2.15-8c-4-6.68-11.76-7.51-13.54-7.62h-0.31c-1.78.1-9.56,0.93-13.54,7.62a15.85,15.85,0,0,0-2.15,8c-1.43,11.83-3.78,19.77-5.85,25.1-0.71,1.82-2,5-1,8.43,1.62,5.21,7.66,7.36,9,7.83,5,1.78,11.66,2.79,13.7,2.21,2,0.58,8.7-.42,13.7-2.21,1.31-.47,7.36-2.62,9-7.83C309.43,469.45,308.1,466.26,307.39,464.44Z"/></clipPath><linearGradient id="linear-gradient-5" x1="130.59" y1="21.4" x2="130.59" y2="480.36" gradientUnits="userSpaceOnUse"><stop offset="0" stop-color="#ad2048" stop-opacity="0.1"/><stop offset="1" stop-color="#ad2048" stop-opacity="0.7"/></linearGradient><clipPath id="clip-path-5"><path class="cls-1" d="M152.29,464.44c-2.07-5.33-4.42-13.27-5.85-25.1a15.85,15.85,0,0,0-2.15-8c-4-6.68-11.76-7.51-13.54-7.62h-0.31c-1.78.1-9.56,0.93-13.54,7.62a15.85,15.85,0,0,0-2.15,8c-1.43,11.83-3.78,19.77-5.85,25.1-0.71,1.82-2,5-1,8.43,1.62,5.21,7.66,7.36,9,7.83,5,1.78,11.66,2.79,13.7,2.21,2,0.58,8.7-.42,13.7-2.21,1.31-.47,7.36-2.62,9-7.83C154.32,469.45,153,466.26,152.29,464.44Z"/></clipPath><linearGradient id="linear-gradient-6" x1="53.28" y1="21.4" x2="53.28" y2="476.68" xlink:href="#linear-gradient"/><clipPath id="clip-path-6"><path class="cls-1" d="M75.45,464.72c-2.07-5.33-4.42-13.27-5.85-25.1a15.85,15.85,0,0,0-2.15-8c-4-6.68-11.76-7.51-13.54-7.62H53.6c-1.78.1-9.56,0.93-13.54,7.62a15.85,15.85,0,0,0-2.15,8c-1.43,11.83-3.78,19.77-5.85,25.1-0.71,1.82-2,5-1,8.43,1.62,5.21,7.66,7.36,9,7.83,5,1.78,11.66,2.79,13.7,2.21,2,0.58,8.7-.42,13.7-2.21,1.31-.47,7.36-2.62,9-7.83C77.48,469.74,76.16,466.54,75.45,464.72Z"/></clipPath><pattern id="New_Pattern" data-name="New Pattern" width="5.67" height="5.67" patternTransform="translate(12.58 3.1)" patternUnits="userSpaceOnUse" viewBox="0 0 5.67 5.67"><rect class="cls-1" width="5.67" height="5.67"/><circle class="cls-2" cx="2.83" cy="2.83" r="1.13"/></pattern><pattern id="New_Pattern-3" data-name="New Pattern" width="5.67" height="5.67" patternTransform="translate(13.58 8.33)" patternUnits="userSpaceOnUse" viewBox="0 0 5.67 5.67"><rect class="cls-1" width="5.67" height="5.67"/><circle class="cls-2" cx="2.83" cy="2.83" r="1.13"/></pattern></defs><title>VICC Race Days 2019</title><rect class="cls-3" width="490.61" height="589.87"/><g class="cls-4"><rect class="cls-5" x="414.82" y="21.4" width="51" height="458.05"/><path class="cls-6" d="M469,526.61a134.35,134.35,0,0,0,4.17-28.22,44.07,44.07,0,0,0-.32-8.66,41.62,41.62,0,0,0-9.3-20.2l-9.94,6.73A94.35,94.35,0,0,0,461,486.84c1.29,1.6,2.58,3.1,3.85,4.49-0.05,4.29-.21,7.73-0.32,9.94-0.29,5.61-.65,8.67-1.28,17-0.3,3.95-.52,7.12-0.64,9Z"/><path class="cls-6" d="M411.67,526.61a134.35,134.35,0,0,1-4.17-28.22,44.07,44.07,0,0,1,.32-8.66,41.62,41.62,0,0,1,9.3-20.2l9.94,6.73a94.35,94.35,0,0,1-7.38,10.58c-1.29,1.6-2.58,3.1-3.85,4.49,0.05,4.29.21,7.73,0.32,9.94,0.29,5.61.65,8.67,1.28,17,0.3,3.95.52,7.12,0.64,9Z"/><rect class="cls-7" x="437.76" y="355.24" width="5.13" height="92.79" rx="2.16" ry="2.16"/><path class="cls-8" d="M445.5,419.83a7.24,7.24,0,0,0-5.17-1.35c-2.69,0-3.16,0-5.17,1.35-3.42,2.25-4.34,7.32-3.82,10.83,0.6,4.14,2.75,3.19,4.73,9a85.7,85.7,0,0,1,2.21,12.53,2.63,2.63,0,0,0,.57,1.55,2,2,0,0,0,1.39.62h0.2a2,2,0,0,0,1.39-.62,2.63,2.63,0,0,0,.57-1.55,85.7,85.7,0,0,1,2.21-12.53c2-5.84,4.13-4.89,4.73-9C449.83,427.15,448.92,422.08,445.5,419.83Z"/><rect class="cls-7" x="437.76" y="476.57" width="5.13" height="92.79" rx="2.16" ry="2.16"/><path class="cls-2" d="M435.89,481.61c-0.82-1-.45-2.25-1.5-4.7a13.31,13.31,0,0,0-2.14-3.42,13.31,13.31,0,0,1,8.34-2.78,13.13,13.13,0,0,1,6.84,2.14A29.53,29.53,0,0,0,443.8,482C438.68,483.35,436.71,482.61,435.89,481.61Z"/><g class="cls-9"><rect class="cls-2" x="363.54" y="323.51" width="175.5" height="187"/><rect class="cls-10" x="433.63" y="379.95" width="97" height="7.92" transform="translate(-133.41 353.11) rotate(-35.67)"/><rect class="cls-10" x="371.5" y="369.72" width="97" height="7.92" transform="translate(361.28 932.77) rotate(-125.67)"/><rect class="cls-10" x="431.13" y="401.85" width="97" height="7.92" transform="translate(-146.64 355.76) rotate(-35.67)"/><rect class="cls-10" x="369" y="391.62" width="97" height="7.92" transform="translate(339.54 965.41) rotate(-125.67)"/><rect class="cls-10" x="427.99" y="422.49" width="97" height="7.92" transform="translate(-159.27 357.8) rotate(-35.67)"/><rect class="cls-10" x="365.86" y="412.26" width="97" height="7.92" transform="translate(317.79 995.54) rotate(-125.67)"/><rect class="cls-10" x="424.89" y="443.56" width="97" height="7.92" transform="translate(-172.14 359.95) rotate(-35.67)"/><rect class="cls-10" x="362.76" y="433.34" width="97" height="7.92" transform="translate(295.78 1026.39) rotate(-125.67)"/><rect class="cls-10" x="421.77" y="464.23" width="97" height="7.92" transform="translate(-184.77 362.01) rotate(-35.67)"/><rect class="cls-10" x="359.64" y="454" width="97" height="7.92" transform="translate(274.04 1056.56) rotate(-125.67)"/></g><path class="cls-1" d="M462,463.47c-2.07-5.33-4.42-13.27-5.85-25.1a15.85,15.85,0,0,0-2.15-8c-4-6.68-11.76-7.51-13.54-7.62h-0.31c-1.78.1-9.56,0.93-13.54,7.62a15.85,15.85,0,0,0-2.15,8c-1.43,11.83-3.78,19.77-5.85,25.1-0.71,1.82-2,5-1,8.43,1.62,5.21,7.66,7.36,9,7.83,5,1.78,11.66,2.79,13.7,2.21,2,0.58,8.7-.42,13.7-2.21,1.31-.47,7.36-2.62,9-7.83C464.05,468.48,462.73,465.29,462,463.47Z"/><ellipse class="cls-10" cx="440.32" cy="498.6" rx="13.26" ry="18.32"/><path class="cls-10" d="M411.94,526a5.45,5.45,0,0,0,2.56,1.2,5.52,5.52,0,0,0,3.44-.53,8.88,8.88,0,0,1,1.06,4.67c0,0.28-.35,5-3.21,5.85a4.34,4.34,0,0,1-3.37-.74,6.56,6.56,0,0,1-2.72-6.81A6.76,6.76,0,0,1,411.94,526Z"/><path class="cls-10" d="M468.55,526.15a5.45,5.45,0,0,1-2.56,1.2,5.52,5.52,0,0,1-3.44-.53,8.88,8.88,0,0,0-1.06,4.67c0,0.28.35,5,3.21,5.85a4.34,4.34,0,0,0,3.37-.74,6.56,6.56,0,0,0,2.72-6.81A6.76,6.76,0,0,0,468.55,526.15Z"/><path class="cls-10" d="M409.2,482.57a15.05,15.05,0,0,0,8.5,6.8c1-1.19,2.37-3,4.08-5.1,2.49-3.14,3.08-3.91,3.49-5.27a7.82,7.82,0,0,0-.17-5.7c-1.3-2.57-4.56-4-8.16-3.74-1.75,2.21-3.1,4.13-4.08,5.61a29.92,29.92,0,0,0-2.3,3.91A25.86,25.86,0,0,0,409.2,482.57Z"/><path class="cls-10" d="M471.44,482.57a15.05,15.05,0,0,1-8.5,6.8c-1-1.19-2.37-3-4.08-5.1-2.49-3.14-3.08-3.91-3.49-5.27a7.82,7.82,0,0,1,.17-5.7c1.3-2.57,4.56-4,8.16-3.74,1.75,2.21,3.1,4.13,4.08,5.61a29.92,29.92,0,0,1,2.3,3.91A25.86,25.86,0,0,1,471.44,482.57Z"/><path class="cls-11" d="M465.82,542.94a2,2,0,0,1-2-2V530.19a9,9,0,0,0-9-9h-29a9,9,0,0,0-9,9v10.75a2,2,0,0,1-4,0V530.19a13,13,0,0,1,13-13h29a13,13,0,0,1,13,13v10.75A2,2,0,0,1,465.82,542.94Z"/></g><g class="cls-4"><rect class="cls-12" x="337.51" y="21.4" width="51" height="458.05"/><path class="cls-6" d="M391.66,527.58a134.35,134.35,0,0,0,4.17-28.22,44.07,44.07,0,0,0-.32-8.66,41.62,41.62,0,0,0-9.3-20.2l-9.94,6.73a94.35,94.35,0,0,0,7.38,10.58c1.29,1.6,2.58,3.1,3.85,4.49-0.05,4.29-.21,7.73-0.32,9.94-0.29,5.61-.65,8.67-1.28,17-0.3,3.95-.52,7.12-0.64,9Z"/><path class="cls-6" d="M334.36,527.58a134.35,134.35,0,0,1-4.17-28.22,44.07,44.07,0,0,1,.32-8.66,41.62,41.62,0,0,1,9.3-20.2l9.94,6.73a94.35,94.35,0,0,1-7.38,10.58c-1.29,1.6-2.58,3.1-3.85,4.49,0.05,4.29.21,7.73,0.32,9.94,0.29,5.61.65,8.67,1.28,17,0.3,3.95.52,7.12,0.64,9Z"/><rect class="cls-7" x="360.44" y="356.21" width="5.13" height="92.79" rx="2.16" ry="2.16"/><path class="cls-8" d="M368.18,420.8a7.24,7.24,0,0,0-5.17-1.35c-2.69,0-3.16,0-5.17,1.35-3.42,2.25-4.34,7.32-3.82,10.83,0.6,4.14,2.75,3.19,4.73,9A85.7,85.7,0,0,1,361,453.19a2.63,2.63,0,0,0,.57,1.55,2,2,0,0,0,1.39.62h0.2a2,2,0,0,0,1.39-.62,2.63,2.63,0,0,0,.57-1.55,85.7,85.7,0,0,1,2.21-12.53c2-5.84,4.13-4.89,4.73-9C372.52,428.12,371.6,423.06,368.18,420.8Z"/><rect class="cls-7" x="360.44" y="477.54" width="5.13" height="92.79" rx="2.16" ry="2.16"/><path class="cls-2" d="M358.58,482.58c-0.82-1-.45-2.25-1.5-4.7a13.31,13.31,0,0,0-2.14-3.42,13.31,13.31,0,0,1,8.34-2.78,13.13,13.13,0,0,1,6.84,2.14,29.53,29.53,0,0,0-3.63,9.19C361.36,484.33,359.39,483.58,358.58,482.58Z"/><g class="cls-13"><polygon class="cls-10" points="301.55 348.09 450.22 348.09 432.88 492.81 305.55 486.78 301.55 348.09"/><polygon class="cls-14" points="342.55 476.21 412.22 430.06 408.88 504.06 291.55 489.46 342.55 476.21"/><path class="cls-15" d="M336.22,452.76l32,46-51.33,6.67Z"/></g><path class="cls-1" d="M384.7,464.44c-2.07-5.33-4.42-13.27-5.85-25.1a15.85,15.85,0,0,0-2.15-8c-4-6.68-11.76-7.51-13.54-7.62h-0.31c-1.78.1-9.56,0.93-13.54,7.62a15.85,15.85,0,0,0-2.15,8c-1.43,11.83-3.78,19.77-5.85,25.1-0.71,1.82-2,5-1,8.43,1.62,5.21,7.66,7.36,9,7.83,5,1.78,11.66,2.79,13.7,2.21,2,0.58,8.7-.42,13.7-2.21,1.31-.47,7.36-2.62,9-7.83C386.74,469.45,385.41,466.26,384.7,464.44Z"/><ellipse class="cls-10" cx="363.01" cy="499.57" rx="13.26" ry="18.32"/><path class="cls-15" d="M334.62,527a5.45,5.45,0,0,0,2.56,1.2,5.52,5.52,0,0,0,3.44-.53,8.88,8.88,0,0,1,1.06,4.67c0,0.28-.35,5-3.21,5.85a4.34,4.34,0,0,1-3.37-.74,6.56,6.56,0,0,1-2.72-6.81A6.76,6.76,0,0,1,334.62,527Z"/><path class="cls-14" d="M391.36,527a5.45,5.45,0,0,1-2.56,1.2,5.52,5.52,0,0,1-3.44-.53,8.88,8.88,0,0,0-1.06,4.67c0,0.28.35,5,3.21,5.85a4.34,4.34,0,0,0,3.37-.74,6.56,6.56,0,0,0,2.72-6.81A6.76,6.76,0,0,0,391.36,527Z"/><path class="cls-15" d="M331.92,483.56a15,15,0,0,0,8.49,6.79c1-1.19,2.37-2.95,4.07-5.09,2.49-3.13,3.07-3.9,3.48-5.26a7.8,7.8,0,0,0-.17-5.69c-1.3-2.57-4.55-4-8.15-3.73-1.75,2.2-3.09,4.13-4.07,5.6a29.86,29.86,0,0,0-2.29,3.9A25.81,25.81,0,0,0,331.92,483.56Z"/><path class="cls-14" d="M394.1,483.56a15,15,0,0,1-8.49,6.79c-1-1.19-2.37-2.95-4.07-5.09-2.49-3.13-3.07-3.9-3.48-5.26a7.8,7.8,0,0,1,.17-5.69c1.3-2.57,4.55-4,8.15-3.73,1.75,2.2,3.09,4.13,4.07,5.6a29.86,29.86,0,0,1,2.29,3.9A25.81,25.81,0,0,1,394.1,483.56Z"/><path class="cls-11" d="M388.51,543.91a2,2,0,0,1-2-2V531.16a9,9,0,0,0-9-9h-29a9,9,0,0,0-9,9v10.75a2,2,0,0,1-4,0V531.16a13,13,0,0,1,13-13h29a13,13,0,0,1,13,13v10.75A2,2,0,0,1,388.51,543.91Z"/></g><g class="cls-4"><rect class="cls-16" x="182.88" y="21.4" width="51" height="458.67"/><path class="cls-6" d="M179.73,527.58a134.35,134.35,0,0,1-4.17-28.22,44.07,44.07,0,0,1,.32-8.66,41.62,41.62,0,0,1,9.3-20.2l9.94,6.73a94.35,94.35,0,0,1-7.38,10.58c-1.29,1.6-2.58,3.1-3.85,4.49,0.05,4.29.21,7.73,0.32,9.94,0.29,5.61.65,8.67,1.28,17,0.3,3.95.52,7.12,0.64,9Z"/><path class="cls-2" d="M180,527a5.45,5.45,0,0,0,2.56,1.2,5.52,5.52,0,0,0,3.44-.53,8.88,8.88,0,0,1,1.06,4.67c0,0.28-.35,5-3.21,5.85a4.34,4.34,0,0,1-3.37-.74,6.56,6.56,0,0,1-2.72-6.81A6.76,6.76,0,0,1,180,527Z"/><path class="cls-6" d="M237,527.58a134.35,134.35,0,0,0,4.17-28.22,44.07,44.07,0,0,0-.32-8.66,41.62,41.62,0,0,0-9.3-20.2l-9.94,6.73A94.35,94.35,0,0,0,229,487.82c1.29,1.6,2.58,3.1,3.85,4.49-0.05,4.29-.21,7.73-0.32,9.94-0.29,5.61-.65,8.67-1.28,17-0.3,3.95-.52,7.12-0.64,9Z"/><rect class="cls-7" x="205.81" y="356.21" width="5.13" height="92.79" rx="2.16" ry="2.16"/><path class="cls-8" d="M213.55,420.8a7.24,7.24,0,0,0-5.17-1.35c-2.69,0-3.16,0-5.17,1.35-3.42,2.25-4.34,7.32-3.82,10.83,0.6,4.14,2.75,3.19,4.73,9a85.7,85.7,0,0,1,2.21,12.53,2.63,2.63,0,0,0,.57,1.55,2,2,0,0,0,1.39.62h0.2a2,2,0,0,0,1.39-.62,2.63,2.63,0,0,0,.57-1.55,85.7,85.7,0,0,1,2.21-12.53c2-5.84,4.13-4.89,4.73-9C217.89,428.12,217,423.06,213.55,420.8Z"/><rect class="cls-7" x="205.81" y="477.54" width="5.13" height="92.79" rx="2.16" ry="2.16"/><path class="cls-2" d="M204,482.58c-0.82-1-.45-2.25-1.5-4.7a13.31,13.31,0,0,0-2.14-3.42,13.31,13.31,0,0,1,8.34-2.78,13.13,13.13,0,0,1,6.84,2.14,29.53,29.53,0,0,0-3.63,9.19C206.73,484.33,204.77,483.58,204,482.58Z"/><path class="cls-2" d="M236.73,527a5.45,5.45,0,0,1-2.56,1.2,5.52,5.52,0,0,1-3.44-.53,8.88,8.88,0,0,0-1.06,4.67c0,0.28.35,5,3.21,5.85a4.34,4.34,0,0,0,3.37-.74A6.56,6.56,0,0,0,239,530.6,6.76,6.76,0,0,0,236.73,527Z"/><g class="cls-17"><rect class="cls-2" x="160.39" y="397.98" width="98.67" height="110.33"/><path class="cls-18" d="M186.49,496.68L184,495a94.2,94.2,0,0,0,15.71-48,92.25,92.25,0,0,0-4.89-33.48l2.84-1a95.25,95.25,0,0,1,5,34.57A97.21,97.21,0,0,1,186.49,496.68Z"/><path class="cls-19" d="M183,487.49l-5.19-3a90.1,90.1,0,0,0,10.32-63.23l5.88-1.2A96.09,96.09,0,0,1,183,487.49Z"/><path class="cls-18" d="M230.93,496.68a97.21,97.21,0,0,1-16.21-49.57,95.25,95.25,0,0,1,5-34.57l2.84,1A92.25,92.25,0,0,0,217.72,447a94.19,94.19,0,0,0,15.71,48Z"/><path class="cls-19" d="M234.43,487.49a96.09,96.09,0,0,1-11-67.44l5.88,1.2a90.1,90.1,0,0,0,10.32,63.23Z"/></g><path class="cls-11" d="M233.88,543.91a2,2,0,0,1-2-2V531.16a9,9,0,0,0-9-9h-29a9,9,0,0,0-9,9v10.75a2,2,0,0,1-4,0V531.16a13,13,0,0,1,13-13h29a13,13,0,0,1,13,13v10.75A2,2,0,0,1,233.88,543.91Z"/><path class="cls-1" d="M230.08,464.44c-2.07-5.33-4.42-13.27-5.85-25.1a15.85,15.85,0,0,0-2.15-8c-4-6.68-11.76-7.51-13.54-7.62h-0.31c-1.78.1-9.56,0.93-13.54,7.62a15.85,15.85,0,0,0-2.15,8c-1.43,11.83-3.78,19.77-5.85,25.1-0.71,1.82-2,5-1,8.43,1.62,5.21,7.66,7.36,9,7.83,5,1.78,11.66,2.79,13.7,2.21,2,0.58,8.7-.42,13.7-2.21,1.31-.47,7.36-2.62,9-7.83C232.11,469.45,230.78,466.26,230.08,464.44Z"/><ellipse class="cls-10" cx="208.38" cy="499.57" rx="13.26" ry="18.32"/><path class="cls-10" d="M177.23,483.53a15.08,15.08,0,0,0,8.52,6.81c1-1.2,2.38-3,4.09-5.11,2.5-3.14,3.08-3.92,3.49-5.28a7.83,7.83,0,0,0-.17-5.71c-1.3-2.58-4.57-4-8.18-3.75-1.75,2.21-3.11,4.14-4.09,5.62a30,30,0,0,0-2.3,3.92A25.9,25.9,0,0,0,177.23,483.53Z"/><path class="cls-10" d="M239.53,483.53a15.08,15.08,0,0,1-8.52,6.81c-1-1.2-2.38-3-4.09-5.11-2.5-3.14-3.08-3.92-3.49-5.28a7.83,7.83,0,0,1,.17-5.71c1.3-2.58,4.57-4,8.18-3.75,1.75,2.21,3.11,4.14,4.09,5.62a30,30,0,0,1,2.3,3.92A25.9,25.9,0,0,1,239.53,483.53Z"/></g><g class="cls-4"><rect class="cls-20" x="260.19" y="21.4" width="51" height="458.95"/><path class="cls-21" d="M314,527a5.45,5.45,0,0,1-2.56,1.2,5.52,5.52,0,0,1-3.44-.53A8.88,8.88,0,0,0,307,532.3c0,0.28.35,5,3.21,5.85a4.34,4.34,0,0,0,3.37-.74,6.56,6.56,0,0,0,2.72-6.81A6.76,6.76,0,0,0,314,527Z"/><path class="cls-6" d="M257,527.58a134.35,134.35,0,0,1-4.17-28.22,44.07,44.07,0,0,1,.32-8.66,41.62,41.62,0,0,1,9.3-20.2l9.94,6.73a94.35,94.35,0,0,1-7.38,10.58c-1.29,1.6-2.58,3.1-3.85,4.49,0.05,4.29.21,7.73,0.32,9.94,0.29,5.61.65,8.67,1.28,17,0.3,3.95.52,7.12,0.64,9Z"/><path class="cls-21" d="M257.31,527a5.45,5.45,0,0,0,2.56,1.2,5.52,5.52,0,0,0,3.44-.53,8.88,8.88,0,0,1,1.06,4.67c0,0.28-.35,5-3.21,5.85a4.34,4.34,0,0,1-3.37-.74,6.56,6.56,0,0,1-2.72-6.81A6.76,6.76,0,0,1,257.31,527Z"/><path class="cls-6" d="M314.34,527.58a134.35,134.35,0,0,0,4.17-28.22,44.07,44.07,0,0,0-.32-8.66,41.62,41.62,0,0,0-9.3-20.2l-9.94,6.73a94.35,94.35,0,0,0,7.38,10.58c1.29,1.6,2.58,3.1,3.85,4.49-0.05,4.29-.21,7.73-0.32,9.94-0.29,5.61-.65,8.67-1.28,17-0.3,3.95-.52,7.12-0.64,9Z"/><rect class="cls-7" x="283.13" y="356.21" width="5.13" height="92.79" rx="2.16" ry="2.16"/><path class="cls-8" d="M290.87,420.8a7.24,7.24,0,0,0-5.17-1.35c-2.69,0-3.16,0-5.17,1.35-3.42,2.25-4.34,7.32-3.82,10.83,0.6,4.14,2.75,3.19,4.73,9a85.7,85.7,0,0,1,2.21,12.53,2.63,2.63,0,0,0,.57,1.55,2,2,0,0,0,1.39.62h0.2a2,2,0,0,0,1.39-.62,2.63,2.63,0,0,0,.57-1.55A85.7,85.7,0,0,1,290,440.66c2-5.84,4.13-4.89,4.73-9C295.2,428.12,294.29,423.06,290.87,420.8Z"/><rect class="cls-7" x="283.13" y="477.54" width="5.13" height="92.79" rx="2.16" ry="2.16"/><path class="cls-22" d="M281.27,482.58c-0.82-1-.45-2.25-1.5-4.7a13.31,13.31,0,0,0-2.14-3.42,13.31,13.31,0,0,1,8.34-2.78,13.13,13.13,0,0,1,6.84,2.14,29.53,29.53,0,0,0-3.63,9.19C284,484.33,282.08,483.58,281.27,482.58Z"/><path class="cls-11" d="M311.19,543.91a2,2,0,0,1-2-2V531.16a9,9,0,0,0-9-9h-29a9,9,0,0,0-9,9v10.75a2,2,0,0,1-4,0V531.16a13,13,0,0,1,13-13h29a13,13,0,0,1,13,13v10.75A2,2,0,0,1,311.19,543.91Z"/><g class="cls-23"><rect class="cls-21" x="256.94" y="449.59" width="57.5" height="33.49"/><rect class="cls-2" x="256.94" y="431.36" width="57.5" height="33.49"/><rect class="cls-18" x="256.98" y="413.39" width="57.5" height="33.49"/><rect class="cls-19" x="249.44" y="451.61" width="77.75" height="9.75"/></g><path class="cls-1" d="M307.39,464.44c-2.07-5.33-4.42-13.27-5.85-25.1a15.85,15.85,0,0,0-2.15-8c-4-6.68-11.76-7.51-13.54-7.62h-0.31c-1.78.1-9.56,0.93-13.54,7.62a15.85,15.85,0,0,0-2.15,8c-1.43,11.83-3.78,19.77-5.85,25.1-0.71,1.82-2,5-1,8.43,1.62,5.21,7.66,7.36,9,7.83,5,1.78,11.66,2.79,13.7,2.21,2,0.58,8.7-.42,13.7-2.21,1.31-.47,7.36-2.62,9-7.83C309.43,469.45,308.1,466.26,307.39,464.44Z"/><path class="cls-21" d="M254.57,483.55a15.05,15.05,0,0,0,8.5,6.8c1-1.19,2.37-3,4.08-5.1,2.49-3.14,3.08-3.91,3.49-5.27a7.82,7.82,0,0,0-.17-5.7c-1.3-2.57-4.56-4-8.16-3.74-1.75,2.21-3.1,4.13-4.08,5.61a29.92,29.92,0,0,0-2.3,3.91A25.86,25.86,0,0,0,254.57,483.55Z"/><path class="cls-21" d="M316.92,483.5a15.15,15.15,0,0,1-8.56,6.85c-1-1.2-2.39-3-4.11-5.14-2.51-3.16-3.1-3.94-3.51-5.31a7.87,7.87,0,0,1,.17-5.73c1.31-2.59,4.59-4.06,8.22-3.77,1.76,2.22,3.12,4.16,4.11,5.65a30.12,30.12,0,0,1,2.31,3.94A26,26,0,0,1,316.92,483.5Z"/><ellipse class="cls-18" cx="285.69" cy="499.57" rx="13.26" ry="18.32"/></g><g class="cls-4"><rect class="cls-24" x="105.09" y="21.4" width="51" height="458.95"/><path class="cls-6" d="M102.42,527.87a134.35,134.35,0,0,1-4.17-28.22,44.07,44.07,0,0,1,.32-8.66,41.62,41.62,0,0,1,9.3-20.2l9.94,6.73a94.35,94.35,0,0,1-7.38,10.58c-1.29,1.6-2.58,3.1-3.85,4.49,0.05,4.29.21,7.73,0.32,9.94,0.29,5.61.65,8.67,1.28,17,0.3,3.95.52,7.12,0.64,9Z"/><path class="cls-2" d="M102.68,527.24a5.45,5.45,0,0,0,2.56,1.2,5.52,5.52,0,0,0,3.44-.53,8.88,8.88,0,0,1,1.06,4.67c0,0.28-.35,5-3.21,5.85a4.34,4.34,0,0,1-3.37-.74,6.56,6.56,0,0,1-2.72-6.81A6.76,6.76,0,0,1,102.68,527.24Z"/><path class="cls-6" d="M159.72,527.87a134.35,134.35,0,0,0,4.17-28.22,44.07,44.07,0,0,0-.32-8.66,41.62,41.62,0,0,0-9.3-20.2l-9.94,6.73a94.35,94.35,0,0,0,7.38,10.58c1.29,1.6,2.58,3.1,3.85,4.49-0.05,4.29-.21,7.73-0.32,9.94-0.29,5.61-.65,8.67-1.28,17-0.3,3.95-.52,7.12-0.64,9Z"/><rect class="cls-7" x="128.5" y="356.5" width="5.13" height="92.79" rx="2.16" ry="2.16"/><path class="cls-8" d="M136.24,421.09a7.24,7.24,0,0,0-5.17-1.35c-2.69,0-3.16,0-5.17,1.35-3.42,2.25-4.34,7.32-3.82,10.83,0.6,4.14,2.75,3.19,4.73,9A85.7,85.7,0,0,1,129,453.47a2.63,2.63,0,0,0,.57,1.55,2,2,0,0,0,1.39.62h0.2a2,2,0,0,0,1.39-.62,2.63,2.63,0,0,0,.57-1.55,85.7,85.7,0,0,1,2.21-12.53c2-5.84,4.13-4.89,4.73-9C140.58,428.4,139.66,423.34,136.24,421.09Z"/><rect class="cls-7" x="128.5" y="477.83" width="5.13" height="92.79" rx="2.16" ry="2.16"/><path class="cls-2" d="M126.64,482.86c-0.82-1-.45-2.25-1.5-4.7a13.31,13.31,0,0,0-2.14-3.42,13.31,13.31,0,0,1,8.34-2.78,13.13,13.13,0,0,1,6.84,2.14,29.53,29.53,0,0,0-3.63,9.19C129.42,484.61,127.45,483.87,126.64,482.86Z"/><path class="cls-2" d="M159.42,527.24a5.45,5.45,0,0,1-2.56,1.2,5.52,5.52,0,0,1-3.44-.53,8.88,8.88,0,0,0-1.06,4.67c0,0.28.35,5,3.21,5.85a4.34,4.34,0,0,0,3.37-.74,6.56,6.56,0,0,0,2.72-6.81A6.76,6.76,0,0,0,159.42,527.24Z"/><path class="cls-11" d="M156.57,544.2a2,2,0,0,1-2-2V531.45a9,9,0,0,0-9-9h-29a9,9,0,0,0-9,9V542.2a2,2,0,0,1-4,0V531.45a13,13,0,0,1,13-13h29a13,13,0,0,1,13,13V542.2A2,2,0,0,1,156.57,544.2Z"/><path class="cls-1" d="M152.76,464.72c-2.07-5.33-4.42-13.27-5.85-25.1a15.85,15.85,0,0,0-2.15-8c-4-6.68-11.76-7.51-13.54-7.62h-0.31c-1.78.1-9.56,0.93-13.54,7.62a15.85,15.85,0,0,0-2.15,8c-1.43,11.83-3.78,19.77-5.85,25.1-0.71,1.82-2,5-1,8.43,1.62,5.21,7.66,7.36,9,7.83,5,1.78,11.66,2.79,13.7,2.21,2,0.58,8.7-.42,13.7-2.21,1.31-.47,7.36-2.62,9-7.83C154.8,469.74,153.47,466.54,152.76,464.72Z"/><path class="cls-2" d="M99.92,483.82a15.08,15.08,0,0,0,8.52,6.81c1-1.2,2.38-3,4.09-5.11,2.5-3.14,3.08-3.92,3.49-5.28a7.83,7.83,0,0,0-.17-5.71c-1.3-2.58-4.57-4-8.18-3.75-1.75,2.21-3.11,4.14-4.09,5.62a30,30,0,0,0-2.3,3.92A25.9,25.9,0,0,0,99.92,483.82Z"/><path class="cls-2" d="M162.21,483.82a15.08,15.08,0,0,1-8.52,6.81c-1-1.2-2.38-3-4.09-5.11-2.5-3.14-3.08-3.92-3.49-5.28a7.83,7.83,0,0,1,.17-5.71c1.3-2.58,4.57-4,8.18-3.75,1.75,2.21,3.11,4.14,4.09,5.62a30,30,0,0,1,2.3,3.92A25.9,25.9,0,0,1,162.21,483.82Z"/><g class="cls-25"><rect class="cls-2" x="81.26" y="398.21" width="98.67" height="110.33"/><rect class="cls-26" x="68.37" y="473.15" width="131" height="41.08"/><ellipse class="cls-26" cx="130.59" cy="461.68" rx="13.83" ry="3.99"/><rect class="cls-27" x="125.94" y="412.44" width="9.3" height="32.85"/></g><ellipse class="cls-10" cx="131.07" cy="499.85" rx="13.26" ry="18.32"/></g><g class="cls-4"><rect class="cls-28" x="27.78" y="21.4" width="51" height="455.28"/><path class="cls-6" d="M82.4,527.87a134.35,134.35,0,0,0,4.17-28.22,44.07,44.07,0,0,0-.32-8.66,41.62,41.62,0,0,0-9.3-20.2L67,477.52a94.35,94.35,0,0,0,7.38,10.58c1.29,1.6,2.58,3.1,3.85,4.49-0.05,4.29-.21,7.73-0.32,9.94-0.29,5.61-.65,8.67-1.28,17-0.3,3.95-.52,7.12-0.64,9Z"/><path class="cls-6" d="M25.1,527.87a134.35,134.35,0,0,1-4.17-28.22,44.07,44.07,0,0,1,.32-8.66,41.62,41.62,0,0,1,9.3-20.2l9.94,6.73a94.35,94.35,0,0,1-7.38,10.58c-1.29,1.6-2.58,3.1-3.85,4.49,0.05,4.29.21,7.73,0.32,9.94,0.29,5.61.65,8.67,1.28,17,0.3,3.95.52,7.12,0.64,9Z"/><rect class="cls-7" x="51.19" y="356.5" width="5.13" height="92.79" rx="2.16" ry="2.16"/><path class="cls-8" d="M58.92,421.09a7.24,7.24,0,0,0-5.17-1.35c-2.69,0-3.16,0-5.17,1.35-3.42,2.25-4.34,7.32-3.82,10.83,0.6,4.14,2.75,3.19,4.73,9a85.7,85.7,0,0,1,2.21,12.53,2.63,2.63,0,0,0,.57,1.55,2,2,0,0,0,1.39.62h0.2a2,2,0,0,0,1.39-.62,2.63,2.63,0,0,0,.57-1.55A85.7,85.7,0,0,1,58,440.95c2-5.84,4.13-4.89,4.73-9C63.26,428.4,62.35,423.34,58.92,421.09Z"/><rect class="cls-7" x="51.19" y="477.83" width="5.13" height="92.79" rx="2.16" ry="2.16"/><path class="cls-2" d="M49.32,482.86c-0.82-1-.45-2.25-1.5-4.7a13.31,13.31,0,0,0-2.14-3.42A13.31,13.31,0,0,1,54,472a13.13,13.13,0,0,1,6.84,2.14,29.53,29.53,0,0,0-3.63,9.19C52.1,484.61,50.14,483.87,49.32,482.86Z"/><path class="cls-1" d="M75.45,464.72c-2.07-5.33-4.42-13.27-5.85-25.1a15.85,15.85,0,0,0-2.15-8c-4-6.68-11.76-7.51-13.54-7.62H53.6c-1.78.1-9.56,0.93-13.54,7.62a15.85,15.85,0,0,0-2.15,8c-1.43,11.83-3.78,19.77-5.85,25.1-0.71,1.82-2,5-1,8.43,1.62,5.21,7.66,7.36,9,7.83,5,1.78,11.66,2.79,13.7,2.21,2,0.58,8.7-.42,13.7-2.21,1.31-.47,7.36-2.62,9-7.83C77.48,469.74,76.16,466.54,75.45,464.72Z"/><path class="cls-10" d="M25.37,527.24a5.45,5.45,0,0,0,2.56,1.2,5.52,5.52,0,0,0,3.44-.53,8.88,8.88,0,0,1,1.06,4.67c0,0.28-.35,5-3.21,5.85a4.34,4.34,0,0,1-3.37-.74,6.56,6.56,0,0,1-2.72-6.81A6.76,6.76,0,0,1,25.37,527.24Z"/><path class="cls-10" d="M82,527.41a5.45,5.45,0,0,1-2.56,1.2,5.52,5.52,0,0,1-3.44-.53,8.88,8.88,0,0,0-1.06,4.67c0,0.28.35,5,3.21,5.85a4.34,4.34,0,0,0,3.37-.74A6.56,6.56,0,0,0,84.21,531,6.76,6.76,0,0,0,82,527.41Z"/><path class="cls-11" d="M79.25,544.2a2,2,0,0,1-2-2V531.45a9,9,0,0,0-9-9h-29a9,9,0,0,0-9,9V542.2a2,2,0,0,1-4,0V531.45a13,13,0,0,1,13-13h29a13,13,0,0,1,13,13V542.2A2,2,0,0,1,79.25,544.2Z"/><g class="cls-29"><rect class="cls-10" x="-55.24" y="342.98" width="205.58" height="205.58"/><path class="cls-2" d="M53.75,468.39h0c-8.49,0-12.74-7.11-12.92-7.42a1.5,1.5,0,0,1,2.59-1.51c0,0.06,3.56,5.93,10.33,5.93s10.3-5.87,10.33-5.93A1.5,1.5,0,0,1,66.67,461C66.5,461.28,62.24,468.39,53.75,468.39Z"/><rect class="cls-30" x="24.39" y="417.85" width="59.88" height="37"/><rect class="cls-31" x="25.39" y="474.1" width="59.88" height="37"/></g><path class="cls-10" d="M22.63,483.83a15.05,15.05,0,0,0,8.5,6.8c1-1.19,2.37-3,4.08-5.1,2.49-3.14,3.08-3.91,3.49-5.27a7.82,7.82,0,0,0-.17-5.7c-1.3-2.57-4.56-4-8.16-3.74-1.75,2.21-3.1,4.13-4.08,5.61a29.92,29.92,0,0,0-2.3,3.91A25.86,25.86,0,0,0,22.63,483.83Z"/><path class="cls-10" d="M84.87,483.83a15.05,15.05,0,0,1-8.5,6.8c-1-1.19-2.37-3-4.08-5.1-2.49-3.14-3.08-3.91-3.49-5.27a7.82,7.82,0,0,1,.17-5.7c1.3-2.57,4.56-4,8.16-3.74,1.75,2.21,3.1,4.13,4.08,5.61a29.92,29.92,0,0,1,2.3,3.91A25.86,25.86,0,0,1,84.87,483.83Z"/><ellipse class="cls-10" cx="53.75" cy="499.85" rx="13.26" ry="18.32"/><path class="cls-2" d="M31.64,476.23h0a3.88,3.88,0,0,1,3.88,3.88v2.55a0,0,0,0,1,0,0H27.76a0,0,0,0,1,0,0v-2.55A3.88,3.88,0,0,1,31.64,476.23Z" transform="translate(264.46 59.13) rotate(32.76)"/><path class="cls-2" d="M71.78,475.49h7.77a0,0,0,0,1,0,0V478a3.88,3.88,0,0,1-3.88,3.88h0A3.88,3.88,0,0,1,71.78,478v-2.55a0,0,0,0,1,0,0Z" transform="translate(398.32 840.34) rotate(147.24)"/></g></svg>