<svg id="Layer_2" data-name="Layer 2" xmlns="http://www.w3.org/2000/svg" xmlns:xlink="http://www.w3.org/1999/xlink" viewBox="0 0 458.01 589.87"><defs><style>.cls-1{fill:none;}.cls-2,.cls-22{fill:#fff;}.cls-3{fill:#0c1834;}.cls-4{opacity:0.9;}.cls-5{fill:url(#linear-gradient);}.cls-6{fill:#c49a6c;}.cls-7{fill:#414042;}.cls-8{fill:#594a42;}.cls-9{clip-path:url(#clip-path);}.cls-10{fill:#231f20;}.cls-11{fill:#939598;}.cls-12{fill:url(#linear-gradient-2);}.cls-13{clip-path:url(#clip-path-2);}.cls-14{fill:#ee70a4;}.cls-15{fill:#ed8e5f;}.cls-16{fill:url(#linear-gradient-3);}.cls-17{clip-path:url(#clip-path-3);}.cls-18{fill:#f26522;}.cls-19{fill:#0f113a;}.cls-20{fill:url(#linear-gradient-4);}.cls-21{fill:#00a79d;}.cls-22{stroke:#939598;stroke-miterlimit:10;}.cls-23{clip-path:url(#clip-path-4);}.cls-24{fill:url(#linear-gradient-5);}.cls-25{clip-path:url(#clip-path-5);}.cls-26{fill:#ed1c24;}.cls-27{fill:#fff200;}.cls-28{fill:url(#linear-gradient-6);}.cls-29{clip-path:url(#clip-path-6);}.cls-30{fill:url(#New_Pattern);}.cls-31{fill:url(#New_Pattern-3);}</style><linearGradient id="linear-gradient" x1="419.8" y1="22.66" x2="419.8" y2="480.71" gradientUnits="userSpaceOnUse"><stop offset="0" stop-color="#fff" stop-opacity="0.1"/><stop offset="1" stop-color="#fff" stop-opacity="0.7"/></linearGradient><clipPath id="clip-path"><path class="cls-1" d="M441.49,464.72c-2.07-5.33-4.42-13.27-5.85-25.1a15.85,15.85,0,0,0-2.15-8c-4-6.68-11.76-7.51-13.54-7.62h-0.31c-1.78.1-9.56,0.93-13.54,7.62a15.85,15.85,0,0,0-2.15,8c-1.43,11.83-3.78,19.77-5.85,25.1-0.71,1.82-2,5-1,8.43,1.62,5.21,7.66,7.36,9,7.83,5,1.78,11.66,2.79,13.7,2.21,2,0.58,8.7-.42,13.7-2.21,1.31-.47,7.36-2.62,9-7.83C443.53,469.74,442.2,466.54,441.49,464.72Z"/></clipPath><linearGradient id="linear-gradient-2" x1="343.47" y1="21.69" x2="343.47" y2="479.73" gradientUnits="userSpaceOnUse"><stop offset="0" stop-color="#fff" stop-opacity="0.1"/><stop offset="1" stop-color="#ee70a4" stop-opacity="0.7"/></linearGradient><clipPath id="clip-path-2"><path class="cls-1" d="M365.17,464.72c-2.07-5.33-4.42-13.27-5.85-25.1a15.85,15.85,0,0,0-2.15-8c-4-6.68-11.76-7.51-13.54-7.62h-0.31c-1.78.1-9.56,0.93-13.54,7.62a15.85,15.85,0,0,0-2.15,8c-1.43,11.83-3.78,19.77-5.85,25.1-0.71,1.82-2,5-1,8.43,1.62,5.21,7.66,7.36,9,7.83,5,1.78,11.66,2.79,13.7,2.21,2,0.58,8.7-.42,13.7-2.21,1.31-.47,7.36-2.62,9-7.83C367.2,469.74,365.87,466.54,365.17,464.72Z"/></clipPath><linearGradient id="linear-gradient-3" x1="267.14" y1="21.69" x2="267.14" y2="480.36" gradientUnits="userSpaceOnUse"><stop offset="0" stop-color="#f26522" stop-opacity="0.1"/><stop offset="1" stop-color="#f26522" stop-opacity="0.7"/></linearGradient><clipPath id="clip-path-3"><path class="cls-1" d="M288.84,464.72c-2.07-5.33-4.42-13.27-5.85-25.1a15.85,15.85,0,0,0-2.15-8c-4-6.68-11.76-7.51-13.54-7.62H267c-1.78.1-9.56,0.93-13.54,7.62a15.85,15.85,0,0,0-2.15,8c-1.43,11.83-3.78,19.77-5.85,25.1-0.71,1.82-2,5-1,8.43,1.62,5.21,7.66,7.36,9,7.83,5,1.78,11.66,2.79,13.7,2.21,2,0.58,8.7-.42,13.7-2.21,1.31-.47,7.36-2.62,9-7.83C290.88,469.74,289.55,466.54,288.84,464.72Z"/></clipPath><linearGradient id="linear-gradient-4" x1="38.17" y1="21.69" x2="38.17" y2="480.64" gradientUnits="userSpaceOnUse"><stop offset="0" stop-color="#00a79d" stop-opacity="0.1"/><stop offset="1" stop-color="#00a79d" stop-opacity="0.7"/></linearGradient><clipPath id="clip-path-4"><path class="cls-1" d="M59.86,464.72c-2.07-5.33-4.42-13.27-5.85-25.1a15.85,15.85,0,0,0-2.15-8c-4-6.68-11.76-7.51-13.54-7.62H38c-1.78.1-9.56,0.93-13.54,7.62a15.85,15.85,0,0,0-2.15,8c-1.43,11.83-3.78,19.77-5.85,25.1-0.71,1.82-2,5-1,8.43,1.62,5.21,7.66,7.36,9,7.83,5,1.78,11.66,2.79,13.7,2.21,2,0.58,8.7-.42,13.7-2.21,1.31-.47,7.36-2.62,9-7.83C61.9,469.74,60.57,466.54,59.86,464.72Z"/></clipPath><linearGradient id="linear-gradient-5" x1="114.02" y1="21.4" x2="114.02" y2="480.36" gradientUnits="userSpaceOnUse"><stop offset="0" stop-color="#ad2048" stop-opacity="0.1"/><stop offset="1" stop-color="#ad2048" stop-opacity="0.7"/></linearGradient><clipPath id="clip-path-5"><path class="cls-1" d="M135.72,464.44c-2.07-5.33-4.42-13.27-5.85-25.1a15.85,15.85,0,0,0-2.15-8c-4-6.68-11.76-7.51-13.54-7.62h-0.31c-1.78.1-9.56,0.93-13.54,7.62a15.85,15.85,0,0,0-2.15,8c-1.43,11.83-3.78,19.77-5.85,25.1-0.71,1.82-2,5-1,8.43,1.62,5.21,7.66,7.36,9,7.83,5,1.78,11.66,2.79,13.7,2.21,2,0.58,8.7-.42,13.7-2.21,1.31-.47,7.36-2.62,9-7.83C137.75,469.45,136.42,466.26,135.72,464.44Z"/></clipPath><linearGradient id="linear-gradient-6" x1="190.34" y1="21.4" x2="190.34" y2="476.68" xlink:href="#linear-gradient"/><clipPath id="clip-path-6"><path class="cls-1" d="M212.51,464.72c-2.07-5.33-4.42-13.27-5.85-25.1a15.85,15.85,0,0,0-2.15-8c-4-6.68-11.76-7.51-13.54-7.62h-0.31c-1.78.1-9.56,0.93-13.54,7.62a15.85,15.85,0,0,0-2.15,8c-1.43,11.83-3.78,19.77-5.85,25.1-0.71,1.82-2,5-1,8.43,1.62,5.21,7.66,7.36,9,7.83,5,1.78,11.66,2.79,13.7,2.21,2,0.58,8.7-.42,13.7-2.21,1.31-.47,7.36-2.62,9-7.83C214.55,469.74,213.22,466.54,212.51,464.72Z"/></clipPath><pattern id="New_Pattern" data-name="New Pattern" width="5.67" height="5.67" patternTransform="translate(8.04 2.47)" patternUnits="userSpaceOnUse" viewBox="0 0 5.67 5.67"><rect class="cls-1" width="5.67" height="5.67"/><circle class="cls-2" cx="2.83" cy="2.83" r="1.13"/></pattern><pattern id="New_Pattern-3" data-name="New Pattern" width="5.67" height="5.67" patternTransform="translate(9.04 7.69)" patternUnits="userSpaceOnUse" viewBox="0 0 5.67 5.67"><rect class="cls-1" width="5.67" height="5.67"/><circle class="cls-2" cx="2.83" cy="2.83" r="1.13"/></pattern></defs><title>VICC Race Days 2019</title><rect class="cls-3" width="458.01" height="589.87"/><g class="cls-4"><rect class="cls-5" x="394.3" y="22.66" width="51" height="458.05"/><path class="cls-6" d="M448.44,527.87a134.35,134.35,0,0,0,4.17-28.22,44.07,44.07,0,0,0-.32-8.66,41.62,41.62,0,0,0-9.3-20.2l-9.94,6.73a94.35,94.35,0,0,0,7.38,10.58c1.29,1.6,2.58,3.1,3.85,4.49-0.05,4.29-.21,7.73-0.32,9.94-0.29,5.61-.65,8.67-1.28,17-0.3,3.95-.52,7.12-0.64,9Z"/><path class="cls-6" d="M391.15,527.87A134.35,134.35,0,0,1,387,499.65a44.07,44.07,0,0,1,.32-8.66,41.62,41.62,0,0,1,9.3-20.2l9.94,6.73a94.35,94.35,0,0,1-7.38,10.58c-1.29,1.6-2.58,3.1-3.85,4.49,0.05,4.29.21,7.73,0.32,9.94,0.29,5.61.65,8.67,1.28,17,0.3,3.95.52,7.12,0.64,9Z"/><rect class="cls-7" x="417.23" y="356.5" width="5.13" height="92.79" rx="2.16" ry="2.16"/><path class="cls-8" d="M425,421.09a7.24,7.24,0,0,0-5.17-1.35c-2.69,0-3.16,0-5.17,1.35-3.42,2.25-4.34,7.32-3.82,10.83,0.6,4.14,2.75,3.19,4.73,9a85.7,85.7,0,0,1,2.21,12.53,2.63,2.63,0,0,0,.57,1.55,2,2,0,0,0,1.39.62h0.2a2,2,0,0,0,1.39-.62,2.63,2.63,0,0,0,.57-1.55,85.7,85.7,0,0,1,2.21-12.53c2-5.84,4.13-4.89,4.73-9C429.31,428.4,428.39,423.34,425,421.09Z"/><rect class="cls-7" x="417.23" y="477.83" width="5.13" height="92.79" rx="2.16" ry="2.16"/><path class="cls-2" d="M415.37,482.86c-0.82-1-.45-2.25-1.5-4.7a13.31,13.31,0,0,0-2.14-3.42,13.31,13.31,0,0,1,8.34-2.78,13.13,13.13,0,0,1,6.84,2.14,29.53,29.53,0,0,0-3.63,9.19C418.15,484.61,416.18,483.87,415.37,482.86Z"/><g class="cls-9"><rect class="cls-2" x="343.02" y="324.76" width="175.5" height="187"/><rect class="cls-10" x="413.1" y="381.2" width="97" height="7.92" transform="translate(-137.99 341.38) rotate(-35.67)"/><rect class="cls-10" x="350.97" y="370.98" width="97" height="7.92" transform="translate(327.77 918.09) rotate(-125.67)"/><rect class="cls-10" x="410.6" y="403.1" width="97" height="7.92" transform="translate(-151.23 344.03) rotate(-35.67)"/><rect class="cls-10" x="348.47" y="392.88" width="97" height="7.92" transform="translate(306.02 950.72) rotate(-125.67)"/><rect class="cls-10" x="407.46" y="423.75" width="97" height="7.92" transform="translate(-163.85 346.07) rotate(-35.67)"/><rect class="cls-10" x="345.33" y="413.52" width="97" height="7.92" transform="translate(284.28 980.85) rotate(-125.67)"/><rect class="cls-10" x="404.37" y="444.82" width="97" height="7.92" transform="translate(-176.72 348.22) rotate(-35.67)"/><rect class="cls-10" x="342.24" y="434.59" width="97" height="7.92" transform="translate(262.26 1011.7) rotate(-125.67)"/><rect class="cls-10" x="401.24" y="465.48" width="97" height="7.92" transform="translate(-189.35 350.27) rotate(-35.67)"/><rect class="cls-10" x="339.11" y="455.26" width="97" height="7.92" transform="translate(240.53 1041.87) rotate(-125.67)"/></g><path class="cls-1" d="M441.49,464.72c-2.07-5.33-4.42-13.27-5.85-25.1a15.85,15.85,0,0,0-2.15-8c-4-6.68-11.76-7.51-13.54-7.62h-0.31c-1.78.1-9.56,0.93-13.54,7.62a15.85,15.85,0,0,0-2.15,8c-1.43,11.83-3.78,19.77-5.85,25.1-0.71,1.82-2,5-1,8.43,1.62,5.21,7.66,7.36,9,7.83,5,1.78,11.66,2.79,13.7,2.21,2,0.58,8.7-.42,13.7-2.21,1.31-.47,7.36-2.62,9-7.83C443.53,469.74,442.2,466.54,441.49,464.72Z"/><ellipse class="cls-10" cx="419.8" cy="499.85" rx="13.26" ry="18.32"/><path class="cls-10" d="M391.41,527.24a5.45,5.45,0,0,0,2.56,1.2,5.52,5.52,0,0,0,3.44-.53,8.88,8.88,0,0,1,1.06,4.67c0,0.28-.35,5-3.21,5.85a4.34,4.34,0,0,1-3.37-.74,6.56,6.56,0,0,1-2.72-6.81A6.76,6.76,0,0,1,391.41,527.24Z"/><path class="cls-10" d="M448,527.41a5.45,5.45,0,0,1-2.56,1.2,5.52,5.52,0,0,1-3.44-.53,8.88,8.88,0,0,0-1.06,4.67c0,0.28.35,5,3.21,5.85a4.34,4.34,0,0,0,3.37-.74,6.56,6.56,0,0,0,2.72-6.81A6.76,6.76,0,0,0,448,527.41Z"/><path class="cls-10" d="M388.68,483.83a15.05,15.05,0,0,0,8.5,6.8c1-1.19,2.37-3,4.08-5.1,2.49-3.14,3.08-3.91,3.49-5.27a7.82,7.82,0,0,0-.17-5.7c-1.3-2.57-4.56-4-8.16-3.74-1.75,2.21-3.1,4.13-4.08,5.61a29.92,29.92,0,0,0-2.3,3.91A25.86,25.86,0,0,0,388.68,483.83Z"/><path class="cls-10" d="M450.91,483.83a15.05,15.05,0,0,1-8.5,6.8c-1-1.19-2.37-3-4.08-5.1-2.49-3.14-3.08-3.91-3.49-5.27a7.82,7.82,0,0,1,.17-5.7c1.3-2.57,4.56-4,8.16-3.74,1.75,2.21,3.1,4.13,4.08,5.61a29.92,29.92,0,0,1,2.3,3.91A25.86,25.86,0,0,1,450.91,483.83Z"/><path class="cls-11" d="M445.3,544.2a2,2,0,0,1-2-2V531.45a9,9,0,0,0-9-9h-29a9,9,0,0,0-9,9V542.2a2,2,0,0,1-4,0V531.45a13,13,0,0,1,13-13h29a13,13,0,0,1,13,13V542.2A2,2,0,0,1,445.3,544.2Z"/></g><g class="cls-4"><rect class="cls-12" x="317.97" y="21.69" width="51" height="458.05"/><path class="cls-6" d="M372.12,527.87a134.35,134.35,0,0,0,4.17-28.22A44.07,44.07,0,0,0,376,491a41.62,41.62,0,0,0-9.3-20.2l-9.94,6.73a94.35,94.35,0,0,0,7.38,10.58c1.29,1.6,2.58,3.1,3.85,4.49-0.05,4.29-.21,7.73-0.32,9.94-0.29,5.61-.65,8.67-1.28,17-0.3,3.95-.52,7.12-0.64,9Z"/><path class="cls-6" d="M314.82,527.87a134.35,134.35,0,0,1-4.17-28.22A44.07,44.07,0,0,1,311,491a41.62,41.62,0,0,1,9.3-20.2l9.94,6.73a94.35,94.35,0,0,1-7.38,10.58c-1.29,1.6-2.58,3.1-3.85,4.49,0.05,4.29.21,7.73,0.32,9.94,0.29,5.61.65,8.67,1.28,17,0.3,3.95.52,7.12,0.64,9Z"/><rect class="cls-7" x="340.9" y="356.5" width="5.13" height="92.79" rx="2.16" ry="2.16"/><path class="cls-8" d="M348.64,421.09a7.24,7.24,0,0,0-5.17-1.35c-2.69,0-3.16,0-5.17,1.35-3.42,2.25-4.34,7.32-3.82,10.83,0.6,4.14,2.75,3.19,4.73,9a85.7,85.7,0,0,1,2.21,12.53A2.63,2.63,0,0,0,342,455a2,2,0,0,0,1.39.62h0.2A2,2,0,0,0,345,455a2.63,2.63,0,0,0,.57-1.55,85.7,85.7,0,0,1,2.21-12.53c2-5.84,4.13-4.89,4.73-9C353,428.4,352.07,423.34,348.64,421.09Z"/><rect class="cls-7" x="340.9" y="477.83" width="5.13" height="92.79" rx="2.16" ry="2.16"/><path class="cls-2" d="M339,482.86c-0.82-1-.45-2.25-1.5-4.7a13.31,13.31,0,0,0-2.14-3.42,13.31,13.31,0,0,1,8.34-2.78,13.13,13.13,0,0,1,6.84,2.14,29.53,29.53,0,0,0-3.63,9.19C341.82,484.61,339.86,483.87,339,482.86Z"/><g class="cls-13"><polygon class="cls-10" points="282.01 348.38 430.68 348.38 413.34 493.09 286.01 487.06 282.01 348.38"/><polygon class="cls-14" points="323.01 476.49 392.68 430.35 389.34 504.34 272.01 489.74 323.01 476.49"/><path class="cls-15" d="M316.68,453l32,46-51.33,6.67Z"/></g><path class="cls-1" d="M365.17,464.72c-2.07-5.33-4.42-13.27-5.85-25.1a15.85,15.85,0,0,0-2.15-8c-4-6.68-11.76-7.51-13.54-7.62h-0.31c-1.78.1-9.56,0.93-13.54,7.62a15.85,15.85,0,0,0-2.15,8c-1.43,11.83-3.78,19.77-5.85,25.1-0.71,1.82-2,5-1,8.43,1.62,5.21,7.66,7.36,9,7.83,5,1.78,11.66,2.79,13.7,2.21,2,0.58,8.7-.42,13.7-2.21,1.31-.47,7.36-2.62,9-7.83C367.2,469.74,365.87,466.54,365.17,464.72Z"/><ellipse class="cls-10" cx="343.47" cy="499.85" rx="13.26" ry="18.32"/><path class="cls-15" d="M315.08,527.24a5.45,5.45,0,0,0,2.56,1.2,5.52,5.52,0,0,0,3.44-.53,8.88,8.88,0,0,1,1.06,4.67c0,0.28-.35,5-3.21,5.85a4.34,4.34,0,0,1-3.37-.74,6.56,6.56,0,0,1-2.72-6.81A6.76,6.76,0,0,1,315.08,527.24Z"/><path class="cls-14" d="M371.82,527.24a5.45,5.45,0,0,1-2.56,1.2,5.52,5.52,0,0,1-3.44-.53,8.88,8.88,0,0,0-1.06,4.67c0,0.28.35,5,3.21,5.85a4.34,4.34,0,0,0,3.37-.74,6.56,6.56,0,0,0,2.72-6.81A6.76,6.76,0,0,0,371.82,527.24Z"/><path class="cls-15" d="M312.38,483.84a15,15,0,0,0,8.49,6.79c1-1.19,2.37-2.95,4.07-5.09,2.49-3.13,3.07-3.9,3.48-5.26a7.8,7.8,0,0,0-.17-5.69c-1.3-2.57-4.55-4-8.15-3.73-1.75,2.2-3.09,4.13-4.07,5.6a29.86,29.86,0,0,0-2.29,3.9A25.81,25.81,0,0,0,312.38,483.84Z"/><path class="cls-14" d="M374.56,483.84a15,15,0,0,1-8.49,6.79c-1-1.19-2.37-2.95-4.07-5.09-2.49-3.13-3.07-3.9-3.48-5.26a7.8,7.8,0,0,1,.17-5.69c1.3-2.57,4.55-4,8.15-3.73,1.75,2.2,3.09,4.13,4.07,5.6a29.86,29.86,0,0,1,2.29,3.9A25.81,25.81,0,0,1,374.56,483.84Z"/><path class="cls-11" d="M369,544.2a2,2,0,0,1-2-2V531.45a9,9,0,0,0-9-9H329a9,9,0,0,0-9,9V542.2a2,2,0,0,1-4,0V531.45a13,13,0,0,1,13-13h29a13,13,0,0,1,13,13V542.2A2,2,0,0,1,369,544.2Z"/></g><g class="cls-4"><rect class="cls-16" x="241.64" y="21.69" width="51" height="458.67"/><path class="cls-6" d="M238.49,527.87a134.35,134.35,0,0,1-4.17-28.22,44.07,44.07,0,0,1,.32-8.66,41.62,41.62,0,0,1,9.3-20.2l9.94,6.73a94.35,94.35,0,0,1-7.38,10.58c-1.29,1.6-2.58,3.1-3.85,4.49,0.05,4.29.21,7.73,0.32,9.94,0.29,5.61.65,8.67,1.28,17,0.3,3.95.52,7.12,0.64,9Z"/><path class="cls-2" d="M238.76,527.24a5.45,5.45,0,0,0,2.56,1.2,5.52,5.52,0,0,0,3.44-.53,8.88,8.88,0,0,1,1.06,4.67c0,0.28-.35,5-3.21,5.85a4.34,4.34,0,0,1-3.37-.74,6.56,6.56,0,0,1-2.72-6.81A6.76,6.76,0,0,1,238.76,527.24Z"/><path class="cls-6" d="M295.79,527.87A134.35,134.35,0,0,0,300,499.65a44.07,44.07,0,0,0-.32-8.66,41.62,41.62,0,0,0-9.3-20.2l-9.94,6.73a94.35,94.35,0,0,0,7.38,10.58c1.29,1.6,2.58,3.1,3.85,4.49-0.05,4.29-.21,7.73-0.32,9.94-0.29,5.61-.65,8.67-1.28,17-0.3,3.95-.52,7.12-0.64,9Z"/><rect class="cls-7" x="264.58" y="356.5" width="5.13" height="92.79" rx="2.16" ry="2.16"/><path class="cls-8" d="M272.32,421.09a7.24,7.24,0,0,0-5.17-1.35c-2.69,0-3.16,0-5.17,1.35-3.42,2.25-4.34,7.32-3.82,10.83,0.6,4.14,2.75,3.19,4.73,9a85.7,85.7,0,0,1,2.21,12.53,2.63,2.63,0,0,0,.57,1.55,2,2,0,0,0,1.39.62h0.2a2,2,0,0,0,1.39-.62,2.63,2.63,0,0,0,.57-1.55,85.7,85.7,0,0,1,2.21-12.53c2-5.84,4.13-4.89,4.73-9C276.65,428.4,275.74,423.34,272.32,421.09Z"/><rect class="cls-7" x="264.58" y="477.83" width="5.13" height="92.79" rx="2.16" ry="2.16"/><path class="cls-2" d="M262.71,482.86c-0.82-1-.45-2.25-1.5-4.7a13.31,13.31,0,0,0-2.14-3.42,13.31,13.31,0,0,1,8.34-2.78,13.13,13.13,0,0,1,6.84,2.14,29.53,29.53,0,0,0-3.63,9.19C265.5,484.61,263.53,483.87,262.71,482.86Z"/><path class="cls-2" d="M295.5,527.24a5.45,5.45,0,0,1-2.56,1.2,5.52,5.52,0,0,1-3.44-.53,8.88,8.88,0,0,0-1.06,4.67c0,0.28.35,5,3.21,5.85a4.34,4.34,0,0,0,3.37-.74,6.56,6.56,0,0,0,2.72-6.81A6.76,6.76,0,0,0,295.5,527.24Z"/><g class="cls-17"><rect class="cls-2" x="219.15" y="398.27" width="98.67" height="110.33"/><path class="cls-18" d="M245.25,497l-2.5-1.66a94.2,94.2,0,0,0,15.71-48,92.25,92.25,0,0,0-4.89-33.48l2.84-1a95.25,95.25,0,0,1,5,34.57A97.21,97.21,0,0,1,245.25,497Z"/><path class="cls-19" d="M241.75,487.77l-5.19-3a90.1,90.1,0,0,0,10.32-63.23l5.88-1.2A96.09,96.09,0,0,1,241.75,487.77Z"/><path class="cls-18" d="M289.69,497a97.21,97.21,0,0,1-16.21-49.57,95.25,95.25,0,0,1,5-34.57l2.84,1a92.25,92.25,0,0,0-4.89,33.48,94.19,94.19,0,0,0,15.71,48Z"/><path class="cls-19" d="M293.19,487.77a96.09,96.09,0,0,1-11-67.44l5.88,1.2a90.1,90.1,0,0,0,10.32,63.23Z"/></g><path class="cls-11" d="M292.64,544.2a2,2,0,0,1-2-2V531.45a9,9,0,0,0-9-9h-29a9,9,0,0,0-9,9V542.2a2,2,0,0,1-4,0V531.45a13,13,0,0,1,13-13h29a13,13,0,0,1,13,13V542.2A2,2,0,0,1,292.64,544.2Z"/><path class="cls-1" d="M288.84,464.72c-2.07-5.33-4.42-13.27-5.85-25.1a15.85,15.85,0,0,0-2.15-8c-4-6.68-11.76-7.51-13.54-7.62H267c-1.78.1-9.56,0.93-13.54,7.62a15.85,15.85,0,0,0-2.15,8c-1.43,11.83-3.78,19.77-5.85,25.1-0.71,1.82-2,5-1,8.43,1.62,5.21,7.66,7.36,9,7.83,5,1.78,11.66,2.79,13.7,2.21,2,0.58,8.7-.42,13.7-2.21,1.31-.47,7.36-2.62,9-7.83C290.88,469.74,289.55,466.54,288.84,464.72Z"/><ellipse class="cls-10" cx="267.14" cy="499.85" rx="13.26" ry="18.32"/><path class="cls-10" d="M236,483.82a15.08,15.08,0,0,0,8.52,6.81c1-1.2,2.38-3,4.09-5.11,2.5-3.14,3.08-3.92,3.49-5.28a7.83,7.83,0,0,0-.17-5.71c-1.3-2.58-4.57-4-8.18-3.75-1.75,2.21-3.11,4.14-4.09,5.62a30,30,0,0,0-2.3,3.92A25.9,25.9,0,0,0,236,483.82Z"/><path class="cls-10" d="M298.29,483.82a15.08,15.08,0,0,1-8.52,6.81c-1-1.2-2.38-3-4.09-5.11-2.5-3.14-3.08-3.92-3.49-5.28a7.83,7.83,0,0,1,.17-5.71c1.3-2.58,4.57-4,8.18-3.75,1.75,2.21,3.11,4.14,4.09,5.62a30,30,0,0,1,2.3,3.92A25.9,25.9,0,0,1,298.29,483.82Z"/></g><g class="cls-4"><rect class="cls-20" x="12.67" y="21.69" width="51" height="458.95"/><path class="cls-21" d="M66.52,527.24a5.45,5.45,0,0,1-2.56,1.2,5.52,5.52,0,0,1-3.44-.53,8.88,8.88,0,0,0-1.06,4.67c0,0.28.35,5,3.21,5.85A4.34,4.34,0,0,0,66,537.7a6.56,6.56,0,0,0,2.72-6.81A6.76,6.76,0,0,0,66.52,527.24Z"/><path class="cls-6" d="M9.52,527.87a134.35,134.35,0,0,1-4.17-28.22A44.07,44.07,0,0,1,5.67,491a41.62,41.62,0,0,1,9.3-20.2l9.94,6.73a94.35,94.35,0,0,1-7.38,10.58c-1.29,1.6-2.58,3.1-3.85,4.49,0.05,4.29.21,7.73,0.32,9.94,0.29,5.61.65,8.67,1.28,17,0.3,3.95.52,7.12,0.64,9Z"/><path class="cls-21" d="M9.78,527.24a5.45,5.45,0,0,0,2.56,1.2,5.52,5.52,0,0,0,3.44-.53,8.88,8.88,0,0,1,1.06,4.67c0,0.28-.35,5-3.21,5.85a4.34,4.34,0,0,1-3.37-.74,6.56,6.56,0,0,1-2.72-6.81A6.76,6.76,0,0,1,9.78,527.24Z"/><path class="cls-6" d="M66.82,527.87A134.35,134.35,0,0,0,71,499.65a44.07,44.07,0,0,0-.32-8.66,41.62,41.62,0,0,0-9.3-20.2l-9.94,6.73A94.35,94.35,0,0,0,58.8,488.1c1.29,1.6,2.58,3.1,3.85,4.49-0.05,4.29-.21,7.73-0.32,9.94-0.29,5.61-.65,8.67-1.28,17-0.3,3.95-.52,7.12-0.64,9Z"/><rect class="cls-7" x="35.6" y="356.5" width="5.13" height="92.79" rx="2.16" ry="2.16"/><path class="cls-8" d="M43.34,421.09a7.24,7.24,0,0,0-5.17-1.35c-2.69,0-3.16,0-5.17,1.35-3.42,2.25-4.34,7.32-3.82,10.83,0.6,4.14,2.75,3.19,4.73,9a85.7,85.7,0,0,1,2.21,12.53,2.63,2.63,0,0,0,.57,1.55,2,2,0,0,0,1.39.62h0.2a2,2,0,0,0,1.39-.62,2.63,2.63,0,0,0,.57-1.55,85.7,85.7,0,0,1,2.21-12.53c2-5.84,4.13-4.89,4.73-9C47.68,428.4,46.76,423.34,43.34,421.09Z"/><rect class="cls-7" x="35.6" y="477.83" width="5.13" height="92.79" rx="2.16" ry="2.16"/><path class="cls-22" d="M33.74,482.86c-0.82-1-.45-2.25-1.5-4.7a13.31,13.31,0,0,0-2.14-3.42A13.31,13.31,0,0,1,38.44,472a13.13,13.13,0,0,1,6.84,2.14,29.53,29.53,0,0,0-3.63,9.19C36.52,484.61,34.55,483.87,33.74,482.86Z"/><path class="cls-11" d="M63.67,544.2a2,2,0,0,1-2-2V531.45a9,9,0,0,0-9-9h-29a9,9,0,0,0-9,9V542.2a2,2,0,0,1-4,0V531.45a13,13,0,0,1,13-13h29a13,13,0,0,1,13,13V542.2A2,2,0,0,1,63.67,544.2Z"/><g class="cls-23"><rect class="cls-21" x="9.42" y="449.87" width="57.5" height="33.49"/><rect class="cls-2" x="9.42" y="431.64" width="57.5" height="33.49"/><rect class="cls-18" x="9.45" y="413.68" width="57.5" height="33.49"/><rect class="cls-19" x="1.92" y="451.9" width="77.75" height="9.75"/></g><path class="cls-1" d="M59.86,464.72c-2.07-5.33-4.42-13.27-5.85-25.1a15.85,15.85,0,0,0-2.15-8c-4-6.68-11.76-7.51-13.54-7.62H38c-1.78.1-9.56,0.93-13.54,7.62a15.85,15.85,0,0,0-2.15,8c-1.43,11.83-3.78,19.77-5.85,25.1-0.71,1.82-2,5-1,8.43,1.62,5.21,7.66,7.36,9,7.83,5,1.78,11.66,2.79,13.7,2.21,2,0.58,8.7-.42,13.7-2.21,1.31-.47,7.36-2.62,9-7.83C61.9,469.74,60.57,466.54,59.86,464.72Z"/><path class="cls-21" d="M7,483.83a15.05,15.05,0,0,0,8.5,6.8c1-1.19,2.37-3,4.08-5.1,2.49-3.14,3.08-3.91,3.49-5.27a7.82,7.82,0,0,0-.17-5.7c-1.3-2.57-4.56-4-8.16-3.74C13,473,11.69,475,10.7,476.43a29.92,29.92,0,0,0-2.3,3.91A25.86,25.86,0,0,0,7,483.83Z"/><path class="cls-21" d="M69.4,483.78a15.15,15.15,0,0,1-8.56,6.85c-1-1.2-2.39-3-4.11-5.14-2.51-3.16-3.1-3.94-3.51-5.31a7.87,7.87,0,0,1,.17-5.73c1.31-2.59,4.59-4.06,8.22-3.77,1.76,2.22,3.12,4.16,4.11,5.65A30.12,30.12,0,0,1,68,480.27,26,26,0,0,1,69.4,483.78Z"/><ellipse class="cls-18" cx="38.17" cy="499.85" rx="13.26" ry="18.32"/></g><g class="cls-4"><rect class="cls-24" x="88.52" y="21.4" width="51" height="458.95"/><path class="cls-6" d="M85.84,527.87a134.35,134.35,0,0,1-4.17-28.22A44.07,44.07,0,0,1,82,491a41.62,41.62,0,0,1,9.3-20.2l9.94,6.73a94.35,94.35,0,0,1-7.38,10.58c-1.29,1.6-2.58,3.1-3.85,4.49,0.05,4.29.21,7.73,0.32,9.94,0.29,5.61.65,8.67,1.28,17,0.3,3.95.52,7.12,0.64,9Z"/><path class="cls-2" d="M86.11,527.24a5.45,5.45,0,0,0,2.56,1.2,5.52,5.52,0,0,0,3.44-.53,8.88,8.88,0,0,1,1.06,4.67c0,0.28-.35,5-3.21,5.85a4.34,4.34,0,0,1-3.37-.74,6.56,6.56,0,0,1-2.72-6.81A6.76,6.76,0,0,1,86.11,527.24Z"/><path class="cls-6" d="M143.14,527.87a134.35,134.35,0,0,0,4.17-28.22A44.07,44.07,0,0,0,147,491a41.62,41.62,0,0,0-9.3-20.2l-9.94,6.73a94.35,94.35,0,0,0,7.38,10.58c1.29,1.6,2.58,3.1,3.85,4.49-0.05,4.29-.21,7.73-0.32,9.94-0.29,5.61-.65,8.67-1.28,17-0.3,3.95-.52,7.12-0.64,9Z"/><rect class="cls-7" x="111.93" y="356.5" width="5.13" height="92.79" rx="2.16" ry="2.16"/><path class="cls-8" d="M119.67,421.09a7.24,7.24,0,0,0-5.17-1.35c-2.69,0-3.16,0-5.17,1.35-3.42,2.25-4.34,7.32-3.82,10.83,0.6,4.14,2.75,3.19,4.73,9a85.7,85.7,0,0,1,2.21,12.53A2.63,2.63,0,0,0,113,455a2,2,0,0,0,1.39.62h0.2A2,2,0,0,0,116,455a2.63,2.63,0,0,0,.57-1.55,85.7,85.7,0,0,1,2.21-12.53c2-5.84,4.13-4.89,4.73-9C124,428.4,123.09,423.34,119.67,421.09Z"/><rect class="cls-7" x="111.93" y="477.83" width="5.13" height="92.79" rx="2.16" ry="2.16"/><path class="cls-2" d="M110.06,482.86c-0.82-1-.45-2.25-1.5-4.7a13.31,13.31,0,0,0-2.14-3.42,13.31,13.31,0,0,1,8.34-2.78,13.13,13.13,0,0,1,6.84,2.14,29.53,29.53,0,0,0-3.63,9.19C112.85,484.61,110.88,483.87,110.06,482.86Z"/><path class="cls-2" d="M142.84,527.24a5.45,5.45,0,0,1-2.56,1.2,5.52,5.52,0,0,1-3.44-.53,8.88,8.88,0,0,0-1.06,4.67c0,0.28.35,5,3.21,5.85a4.34,4.34,0,0,0,3.37-.74,6.56,6.56,0,0,0,2.72-6.81A6.76,6.76,0,0,0,142.84,527.24Z"/><path class="cls-11" d="M140,544.2a2,2,0,0,1-2-2V531.45a9,9,0,0,0-9-9H100a9,9,0,0,0-9,9V542.2a2,2,0,0,1-4,0V531.45a13,13,0,0,1,13-13h29a13,13,0,0,1,13,13V542.2A2,2,0,0,1,140,544.2Z"/><path class="cls-1" d="M136.19,464.72c-2.07-5.33-4.42-13.27-5.85-25.1a15.85,15.85,0,0,0-2.15-8c-4-6.68-11.76-7.51-13.54-7.62h-0.31c-1.78.1-9.56,0.93-13.54,7.62a15.85,15.85,0,0,0-2.15,8c-1.43,11.83-3.78,19.77-5.85,25.1-0.71,1.82-2,5-1,8.43,1.62,5.21,7.66,7.36,9,7.83,5,1.78,11.66,2.79,13.7,2.21,2,0.58,8.7-.42,13.7-2.21,1.31-.47,7.36-2.62,9-7.83C138.22,469.74,136.9,466.54,136.19,464.72Z"/><path class="cls-2" d="M83.34,483.82a15.08,15.08,0,0,0,8.52,6.81c1-1.2,2.38-3,4.09-5.11,2.5-3.14,3.08-3.92,3.49-5.28a7.83,7.83,0,0,0-.17-5.71c-1.3-2.58-4.57-4-8.18-3.75C89.34,473,88,474.93,87,476.41a30,30,0,0,0-2.3,3.92A25.9,25.9,0,0,0,83.34,483.82Z"/><path class="cls-2" d="M145.64,483.82a15.08,15.08,0,0,1-8.52,6.81c-1-1.2-2.38-3-4.09-5.11-2.5-3.14-3.08-3.92-3.49-5.28a7.83,7.83,0,0,1,.17-5.71c1.3-2.58,4.57-4,8.18-3.75,1.75,2.21,3.11,4.14,4.09,5.62a30,30,0,0,1,2.3,3.92A25.9,25.9,0,0,1,145.64,483.82Z"/><g class="cls-25"><rect class="cls-2" x="64.69" y="398.21" width="98.67" height="110.33"/><rect class="cls-26" x="51.8" y="473.15" width="131" height="41.08"/><ellipse class="cls-26" cx="114.02" cy="461.68" rx="13.83" ry="3.99"/><rect class="cls-27" x="109.37" y="412.44" width="9.3" height="32.85"/></g><ellipse class="cls-10" cx="114.49" cy="499.85" rx="13.26" ry="18.32"/></g><g class="cls-4"><rect class="cls-28" x="164.84" y="21.4" width="51" height="455.28"/><path class="cls-6" d="M219.47,527.87a134.35,134.35,0,0,0,4.17-28.22,44.07,44.07,0,0,0-.32-8.66,41.62,41.62,0,0,0-9.3-20.2l-9.94,6.73a94.35,94.35,0,0,0,7.38,10.58c1.29,1.6,2.58,3.1,3.85,4.49-0.05,4.29-.21,7.73-0.32,9.94-0.29,5.61-.65,8.67-1.28,17-0.3,3.95-.52,7.12-0.64,9Z"/><path class="cls-6" d="M162.17,527.87A134.35,134.35,0,0,1,158,499.65a44.07,44.07,0,0,1,.32-8.66,41.62,41.62,0,0,1,9.3-20.2l9.94,6.73a94.35,94.35,0,0,1-7.38,10.58c-1.29,1.6-2.58,3.1-3.85,4.49,0.05,4.29.21,7.73,0.32,9.94,0.29,5.61.65,8.67,1.28,17,0.3,3.95.52,7.12,0.64,9Z"/><rect class="cls-7" x="188.25" y="356.5" width="5.13" height="92.79" rx="2.16" ry="2.16"/><path class="cls-8" d="M196,421.09a7.24,7.24,0,0,0-5.17-1.35c-2.69,0-3.16,0-5.17,1.35-3.42,2.25-4.34,7.32-3.82,10.83,0.6,4.14,2.75,3.19,4.73,9a85.7,85.7,0,0,1,2.21,12.53,2.63,2.63,0,0,0,.57,1.55,2,2,0,0,0,1.39.62h0.2a2,2,0,0,0,1.39-.62,2.63,2.63,0,0,0,.57-1.55,85.7,85.7,0,0,1,2.21-12.53c2-5.84,4.13-4.89,4.73-9C200.33,428.4,199.41,423.34,196,421.09Z"/><rect class="cls-7" x="188.25" y="477.83" width="5.13" height="92.79" rx="2.16" ry="2.16"/><path class="cls-2" d="M186.39,482.86c-0.82-1-.45-2.25-1.5-4.7a13.31,13.31,0,0,0-2.14-3.42,13.31,13.31,0,0,1,8.34-2.78,13.13,13.13,0,0,1,6.84,2.14,29.53,29.53,0,0,0-3.63,9.19C189.17,484.61,187.2,483.87,186.39,482.86Z"/><path class="cls-1" d="M212.51,464.72c-2.07-5.33-4.42-13.27-5.85-25.1a15.85,15.85,0,0,0-2.15-8c-4-6.68-11.76-7.51-13.54-7.62h-0.31c-1.78.1-9.56,0.93-13.54,7.62a15.85,15.85,0,0,0-2.15,8c-1.43,11.83-3.78,19.77-5.85,25.1-0.71,1.82-2,5-1,8.43,1.62,5.21,7.66,7.36,9,7.83,5,1.78,11.66,2.79,13.7,2.21,2,0.58,8.7-.42,13.7-2.21,1.31-.47,7.36-2.62,9-7.83C214.55,469.74,213.22,466.54,212.51,464.72Z"/><path class="cls-10" d="M162.43,527.24a5.45,5.45,0,0,0,2.56,1.2,5.52,5.52,0,0,0,3.44-.53,8.88,8.88,0,0,1,1.06,4.67c0,0.28-.35,5-3.21,5.85a4.34,4.34,0,0,1-3.37-.74,6.56,6.56,0,0,1-2.72-6.81A6.76,6.76,0,0,1,162.43,527.24Z"/><path class="cls-10" d="M219,527.41a5.45,5.45,0,0,1-2.56,1.2,5.52,5.52,0,0,1-3.44-.53,8.88,8.88,0,0,0-1.06,4.67c0,0.28.35,5,3.21,5.85a4.34,4.34,0,0,0,3.37-.74,6.56,6.56,0,0,0,2.72-6.81A6.76,6.76,0,0,0,219,527.41Z"/><path class="cls-11" d="M216.32,544.2a2,2,0,0,1-2-2V531.45a9,9,0,0,0-9-9h-29a9,9,0,0,0-9,9V542.2a2,2,0,0,1-4,0V531.45a13,13,0,0,1,13-13h29a13,13,0,0,1,13,13V542.2A2,2,0,0,1,216.32,544.2Z"/><g class="cls-29"><rect class="cls-10" x="81.83" y="342.98" width="205.58" height="205.58"/><path class="cls-2" d="M190.82,468.39h0c-8.49,0-12.74-7.11-12.92-7.42a1.5,1.5,0,0,1,2.59-1.51c0,0.06,3.56,5.93,10.33,5.93s10.3-5.87,10.33-5.93a1.5,1.5,0,0,1,2.59,1.51C203.56,461.28,199.31,468.39,190.82,468.39Z"/><rect class="cls-30" x="161.46" y="417.85" width="59.88" height="37"/><rect class="cls-31" x="162.46" y="474.1" width="59.88" height="37"/></g><path class="cls-10" d="M159.7,483.83a15.05,15.05,0,0,0,8.5,6.8c1-1.19,2.37-3,4.08-5.1,2.49-3.14,3.08-3.91,3.49-5.27a7.82,7.82,0,0,0-.17-5.7c-1.3-2.57-4.56-4-8.16-3.74-1.75,2.21-3.1,4.13-4.08,5.61a29.92,29.92,0,0,0-2.3,3.91A25.86,25.86,0,0,0,159.7,483.83Z"/><path class="cls-10" d="M221.94,483.83a15.05,15.05,0,0,1-8.5,6.8c-1-1.19-2.37-3-4.08-5.1-2.49-3.14-3.08-3.91-3.49-5.27a7.82,7.82,0,0,1,.17-5.7c1.3-2.57,4.56-4,8.16-3.74,1.75,2.21,3.1,4.13,4.08,5.61a29.92,29.92,0,0,1,2.3,3.91A25.86,25.86,0,0,1,221.94,483.83Z"/><ellipse class="cls-10" cx="190.82" cy="499.85" rx="13.26" ry="18.32"/><path class="cls-2" d="M168.71,476.23h0a3.88,3.88,0,0,1,3.88,3.88v2.55a0,0,0,0,1,0,0h-7.77a0,0,0,0,1,0,0v-2.55A3.88,3.88,0,0,1,168.71,476.23Z" transform="translate(286.26 -15.04) rotate(32.76)"/><path class="cls-2" d="M208.85,475.49h7.77a0,0,0,0,1,0,0V478a3.88,3.88,0,0,1-3.88,3.88h0a3.88,3.88,0,0,1-3.88-3.88v-2.55A0,0,0,0,1,208.85,475.49Z" transform="translate(650.65 766.17) rotate(147.24)"/></g></svg>